<?xml version="1.0" encoding="utf-8"?>
<!-- Generator: Adobe Illustrator 21.0.2, SVG Export Plug-In . SVG Version: 6.00 Build 0)  -->
<svg version="1.1" id="Layer_1" xmlns="http://www.w3.org/2000/svg" xmlns:xlink="http://www.w3.org/1999/xlink" x="0px" y="0px"
	 viewBox="0 0 59.1 58.9" style="enable-background:new 0 0 59.1 58.9;" xml:space="preserve">
<g>
	<path d="M38.6,18c-1.1-0.4-2.5-0.2-3.3,0.7c-1.1,1.2-0.9,3,0.3,4.1c0.5,0.5,1.2,0.7,1.9,0.7c0.8,0,1.6-0.4,2.2-1
		c0.9-1,0.9-2.3,0.3-3.4l8.6-9.7c0.4,0.2,0.7,0.2,1.1,0.2c0.8,0,1.6-0.4,2.2-1c1.1-1.2,0.9-3-0.3-4.1c-1.2-1-3.1-0.9-4.1,0.3
		C47,5.5,46.8,6.2,46.8,7c0,0.5,0.2,0.9,0.4,1.3L38.6,18z M38.3,21.4c-0.4,0.4-1.1,0.5-1.5,0.1c-0.5-0.4-0.5-1.1-0.1-1.5
		c0.2-0.2,0.5-0.4,0.8-0.4c0.3,0,0.5,0.1,0.7,0.3C38.7,20.2,38.7,20.9,38.3,21.4z M48.9,6.1c0.2-0.2,0.5-0.4,0.8-0.4
		c0.3,0,0.5,0.1,0.7,0.3c0.5,0.4,0.5,1.1,0.1,1.5C50.1,8,49.4,8,49,7.6c-0.2-0.2-0.3-0.5-0.4-0.8C48.6,6.6,48.7,6.3,48.9,6.1z"/>
	<path d="M58.1,51.4c-0.9-0.8-2.3-0.9-3.4-0.3L33.4,32.3l-1.2,1.4h0l-9.5,10.8l1.4,1.2l0,0l5.6,4.9l1.2-1.4l0,0l3.2-3.6
		c0.4,0.2,0.7,0.2,1.1,0.2c0.8,0,1.6-0.4,2.2-1c1.1-1.2,0.9-3-0.3-4.1c-1.2-1-3.1-0.9-4.1,0.3c-0.5,0.6-0.8,1.3-0.7,2.1
		c0,0.5,0.2,0.9,0.4,1.3l-3.2,3.6l-4.2-3.7l8.3-9.4l19.9,17.6c-0.2,0.4-0.3,0.9-0.2,1.3c0,0.8,0.4,1.5,1,2c0.5,0.5,1.2,0.7,1.9,0.7
		c0.8,0,1.6-0.4,2.2-1c0.5-0.6,0.8-1.3,0.7-2.1S58.7,51.9,58.1,51.4z M34.3,42.2c0.2-0.2,0.5-0.4,0.8-0.4c0.3,0,0.5,0.1,0.7,0.3
		c0.5,0.4,0.5,1.1,0.1,1.5c-0.4,0.4-1.1,0.5-1.5,0.1c-0.2-0.2-0.4-0.5-0.4-0.8C34,42.7,34.1,42.5,34.3,42.2z M57,54.3
		c-0.4,0.4-1.1,0.5-1.5,0.1c-0.2-0.2-0.4-0.5-0.4-0.8c0-0.3,0.1-0.6,0.3-0.8c0.2-0.2,0.5-0.4,0.8-0.4c0.3,0,0.5,0.1,0.7,0.3
		c0.2,0.2,0.4,0.5,0.4,0.8C57.3,53.8,57.2,54.1,57,54.3z"/>
	<path d="M36.8,49.3c-0.5,0.6-0.8,1.3-0.7,2.1s0.4,1.5,1,2c0.5,0.5,1.2,0.7,1.9,0.7c0.8,0,1.6-0.4,2.2-1c1.1-1.2,0.9-3-0.3-4.1
		C39.7,48,37.8,48.1,36.8,49.3z M39.8,51.9c-0.4,0.4-1.1,0.5-1.5,0.1c-0.2-0.2-0.4-0.5-0.4-0.8c0-0.3,0.1-0.6,0.3-0.8
		c0.2-0.2,0.5-0.4,0.8-0.4c0.3,0,0.5,0.1,0.7,0.3C40.2,50.8,40.2,51.5,39.8,51.9z"/>
	<path d="M30.4,29.1c0.4,0.2,0.7,0.2,1.1,0.2c0.8,0,1.6-0.4,2.2-1c1.1-1.2,0.9-3-0.3-4.1c-1.2-1-3.1-0.9-4.1,0.3
		c-0.5,0.6-0.8,1.3-0.7,2.1c0,0.5,0.2,0.9,0.4,1.3L10.3,49.2c-1.1-0.4-2.5-0.2-3.3,0.7c-0.5,0.6-0.8,1.3-0.7,2.1c0,0.8,0.4,1.5,1,2
		c0.5,0.5,1.2,0.7,1.9,0.7c0.8,0,1.6-0.4,2.2-1c0.5-0.6,0.8-1.3,0.7-2.1c0-0.5-0.2-0.9-0.4-1.3L30.4,29.1z M30.7,25.7
		c0.2-0.2,0.5-0.4,0.8-0.4c0.3,0,0.5,0.1,0.7,0.3c0.5,0.4,0.5,1.1,0.1,1.5c-0.4,0.4-1.1,0.5-1.5,0.1c-0.2-0.2-0.3-0.5-0.4-0.8
		C30.4,26.2,30.5,25.9,30.7,25.7z M9.9,52.5C9.6,53,8.8,53,8.4,52.6C8.2,52.5,8,52.2,8,51.9c0-0.3,0.1-0.6,0.3-0.8
		c0.2-0.2,0.5-0.4,0.8-0.4c0.3,0,0.5,0.1,0.7,0.3c0.2,0.2,0.4,0.5,0.4,0.8C10.2,52,10.1,52.3,9.9,52.5z"/>
	<path d="M50,16.1c0,0.5,0.2,0.9,0.4,1.3L47.2,21c-1.1-0.4-2.5-0.2-3.3,0.7c-1.1,1.2-0.9,3,0.3,4.1c0.5,0.5,1.2,0.7,1.9,0.7
		c0.8,0,1.6-0.4,2.2-1c0.5-0.6,0.8-1.3,0.7-2.1c0-0.5-0.2-0.9-0.4-1.3l3.2-3.6c0.4,0.2,0.7,0.2,1.1,0.2c0.8,0,1.6-0.4,2.2-1
		c1.1-1.2,0.9-3-0.3-4.1c-1.2-1-3.1-0.9-4.1,0.3C50.2,14.5,50,15.3,50,16.1z M46.9,24.4c-0.4,0.4-1.1,0.5-1.5,0.1
		c-0.5-0.4-0.5-1.1-0.1-1.5c0.2-0.2,0.5-0.4,0.8-0.4c0.3,0,0.5,0.1,0.7,0.3c0.2,0.2,0.4,0.5,0.4,0.8C47.2,23.8,47.1,24.1,46.9,24.4z
		 M52.1,15.2c0.2-0.2,0.5-0.4,0.8-0.4c0.3,0,0.5,0.1,0.7,0.3c0.5,0.4,0.5,1.1,0.1,1.5c-0.4,0.4-1.1,0.5-1.5,0.1
		c-0.2-0.2-0.4-0.5-0.4-0.8C51.8,15.7,51.9,15.4,52.1,15.2z"/>
	<path d="M30,53.5l-8.6-7.6l-1.2,1.4l0,0L18,49.8c-1.1-0.4-2.5-0.2-3.3,0.7c-1.1,1.2-0.9,3,0.3,4.1c0.5,0.5,1.2,0.7,1.9,0.7
		c0.8,0,1.6-0.4,2.2-1c0.5-0.6,0.8-1.3,0.7-2.1c0-0.5-0.2-0.9-0.4-1.3l2.2-2.5l7.2,6.4c-0.2,0.4-0.3,0.9-0.2,1.3c0,0.8,0.4,1.5,1,2
		c0.5,0.5,1.2,0.7,1.9,0.7c0.8,0,1.6-0.4,2.2-1c1.1-1.2,0.9-3-0.3-4.1C32.4,53,31,52.9,30,53.5z M17.7,53.2
		c-0.4,0.4-1.1,0.5-1.5,0.1c-0.5-0.4-0.5-1.1-0.1-1.5c0.2-0.2,0.5-0.4,0.8-0.4c0.3,0,0.5,0.1,0.7,0.3c0.2,0.2,0.4,0.5,0.4,0.8
		C18,52.7,17.9,53,17.7,53.2z M32.3,56.7c-0.4,0.4-1.1,0.5-1.5,0.1c-0.2-0.2-0.3-0.5-0.4-0.8c0-0.3,0.1-0.6,0.3-0.8
		c0.2-0.2,0.5-0.4,0.8-0.4c0.3,0,0.5,0.1,0.7,0.3C32.6,55.6,32.7,56.3,32.3,56.7z"/>
	<path d="M49.2,41.2c0.5,0.5,1.2,0.7,1.9,0.7c0.8,0,1.6-0.4,2.2-1c1.1-1.2,0.9-3-0.3-4.1c-0.9-0.8-2.3-0.9-3.4-0.3l-7-6.2
		c0.2-0.4,0.3-0.9,0.2-1.3c0-0.8-0.4-1.5-1-2c-1.2-1-3.1-0.9-4.1,0.3c-0.5,0.6-0.8,1.3-0.7,2.1c0,0.8,0.4,1.5,1,2
		c0.5,0.5,1.2,0.7,1.9,0.7c0.5,0,1-0.2,1.5-0.4l7,6.2c-0.2,0.4-0.3,0.9-0.2,1.3C48.3,40,48.6,40.7,49.2,41.2z M51.1,37.9
		c0.3,0,0.5,0.1,0.7,0.3c0.5,0.4,0.5,1.1,0.1,1.5c-0.4,0.4-1.1,0.5-1.5,0.1c-0.2-0.2-0.4-0.5-0.4-0.8c0-0.3,0.1-0.6,0.3-0.8
		C50.5,38,50.8,37.9,51.1,37.9z M40.8,29.9c-0.4,0.4-1.1,0.5-1.5,0.1c-0.2-0.2-0.4-0.5-0.4-0.8c0-0.3,0.1-0.6,0.3-0.8
		c0.2-0.2,0.5-0.4,0.8-0.4c0.3,0,0.5,0.1,0.7,0.3c0.2,0.2,0.4,0.5,0.4,0.8C41.1,29.4,41,29.7,40.8,29.9z"/>
	<path d="M25.6,26.5l1.2-1.4l0,0l9.5-10.8L35,13.2l0,0l-5.6-4.9l-1.2,1.4l0,0L25,13.3c-1.1-0.4-2.5-0.2-3.3,0.7
		c-1.1,1.2-0.9,3,0.3,4.1c0.5,0.5,1.2,0.7,1.9,0.7c0.8,0,1.6-0.4,2.2-1c0.8-1,0.9-2.3,0.3-3.4l3.2-3.6l4.2,3.7L25.5,24L5.6,6.4
		C6,5.3,5.8,3.9,4.8,3.1c-1.2-1-3.1-0.9-4.1,0.3C0.2,3.9,0,4.7,0,5.5c0,0.8,0.4,1.5,1,2c0.5,0.5,1.2,0.7,1.9,0.7
		c0.5,0,1-0.2,1.5-0.4L25.6,26.5z M24.7,16.6c-0.4,0.4-1.1,0.5-1.5,0.1c-0.5-0.4-0.5-1.1-0.1-1.5c0.2-0.2,0.5-0.4,0.8-0.4
		c0.3,0,0.5,0.1,0.7,0.3C25.1,15.5,25.1,16.2,24.7,16.6z M3.7,6C3.3,6.4,2.6,6.5,2.2,6.1C2,5.9,1.8,5.6,1.8,5.3
		c0-0.3,0.1-0.6,0.3-0.8c0.2-0.2,0.5-0.4,0.8-0.4c0.3,0,0.5,0.1,0.7,0.3C4.1,4.9,4.1,5.5,3.7,6z"/>
	<path d="M20.1,10.6c0.8,0,1.6-0.4,2.2-1c1.1-1.2,0.9-3-0.3-4.1c-1.2-1-3.1-0.9-4.1,0.3c-1.1,1.2-0.9,3,0.3,4.1
		C18.7,10.3,19.4,10.6,20.1,10.6z M19.3,7c0.2-0.2,0.5-0.4,0.8-0.4c0.3,0,0.5,0.1,0.7,0.3c0.5,0.4,0.5,1.1,0.1,1.5
		c-0.4,0.4-1.1,0.5-1.5,0.1C18.9,8.1,18.9,7.4,19.3,7z"/>
	<path d="M8.6,41.5l3.2-3.6c0.4,0.2,0.7,0.2,1.1,0.2c0.8,0,1.6-0.4,2.2-1c1.1-1.2,0.9-3-0.3-4.1c-1.2-1-3.1-0.9-4.1,0.3
		c-0.9,1-0.9,2.3-0.3,3.4l-3.2,3.6c-1.1-0.4-2.5-0.2-3.3,0.7c-1.1,1.2-0.9,3,0.3,4.1c0.5,0.5,1.2,0.7,1.9,0.7c0.8,0,1.6-0.4,2.2-1
		C9.2,44,9.3,42.6,8.6,41.5z M12.2,34.5c0.2-0.2,0.5-0.4,0.8-0.4c0.3,0,0.5,0.1,0.7,0.3c0.5,0.4,0.5,1.1,0.1,1.5
		c-0.4,0.4-1.1,0.5-1.5,0.1C11.8,35.7,11.8,35,12.2,34.5z M7,43.7c-0.4,0.4-1.1,0.5-1.5,0.1c-0.5-0.4-0.5-1.1-0.1-1.5
		c0.2-0.2,0.5-0.4,0.8-0.4c0.3,0,0.5,0.1,0.7,0.3C7.3,42.6,7.4,43.3,7,43.7z"/>
	<path d="M27.6,5.8c0.5,0,1-0.2,1.5-0.4l8.6,7.6l1.2-1.4l0,0L41,9.1c0.4,0.2,0.7,0.2,1.1,0.2c0.8,0,1.6-0.4,2.2-1
		c1.1-1.2,0.9-3-0.3-4.1C43,3.2,41,3.3,40,4.5c-0.5,0.6-0.8,1.3-0.7,2.1c0,0.5,0.2,0.9,0.4,1.3l-2.2,2.5L30.3,4
		c0.2-0.4,0.3-0.9,0.2-1.3c0-0.8-0.4-1.5-1-2c-1.2-1-3.1-0.9-4.1,0.3c-0.5,0.6-0.8,1.3-0.7,2.1s0.4,1.5,1,2
		C26.2,5.5,26.9,5.8,27.6,5.8z M41.4,5.7c0.2-0.2,0.5-0.4,0.8-0.4c0.3,0,0.5,0.1,0.7,0.3C43.4,6,43.4,6.7,43,7.1
		c-0.4,0.4-1.1,0.5-1.5,0.1c-0.2-0.2-0.4-0.5-0.4-0.8C41.1,6.2,41.2,5.9,41.4,5.7z M26.8,2.1c0.2-0.2,0.5-0.4,0.8-0.4
		c0.3,0,0.5,0.1,0.7,0.3c0.2,0.2,0.4,0.5,0.4,0.8c0,0.3-0.1,0.6-0.3,0.8c-0.4,0.4-1.1,0.5-1.5,0.1c-0.2-0.2-0.4-0.5-0.4-0.8
		C26.5,2.7,26.6,2.4,26.8,2.1z"/>
	<path d="M17.2,31.9c0.5,0.5,1.2,0.7,1.9,0.7c0.8,0,1.6-0.4,2.2-1c0.5-0.6,0.8-1.3,0.7-2.1c0-0.8-0.4-1.5-1-2
		c-0.9-0.8-2.3-0.9-3.4-0.3l-7-6.2c0.2-0.4,0.3-0.9,0.2-1.3c0-0.8-0.4-1.5-1-2c-1.2-1-3.1-0.9-4.1,0.3C5.2,18.5,5,19.3,5,20.1
		s0.4,1.5,1,2c0.5,0.5,1.2,0.7,1.9,0.7c0.5,0,1-0.2,1.5-0.4l7,6.2C15.9,29.7,16.2,31,17.2,31.9z M18.3,29c0.2-0.2,0.5-0.4,0.8-0.4
		c0.3,0,0.5,0.1,0.7,0.3c0.2,0.2,0.3,0.5,0.4,0.8c0,0.3-0.1,0.6-0.3,0.8c-0.4,0.4-1.1,0.5-1.5,0.1C17.9,30.1,17.9,29.4,18.3,29z
		 M7.2,20.7c-0.2-0.2-0.4-0.5-0.4-0.8c0-0.3,0.1-0.6,0.3-0.8c0.2-0.2,0.5-0.4,0.8-0.4c0.3,0,0.5,0.1,0.7,0.3C8.9,19.2,9,19.5,9,19.8
		c0,0.3-0.1,0.6-0.3,0.8C8.4,21,7.6,21.1,7.2,20.7z"/>
</g>
</svg>
