<svg width="72" height="72" viewBox="0 0 72 72" fill="none" xmlns="http://www.w3.org/2000/svg">
<path fill-rule="evenodd" clip-rule="evenodd" d="M68 4H4V68H68V4ZM0 0V72H72V0H0Z" fill="black"/>
<path d="M5.16602 11.8652L5.30273 12.627L5.43945 11.8945L7.76367 4.43359H10.5957L6.58203 15H4.0332L0 4.43359H2.83203L5.16602 11.8652Z" transform="translate(12.7031 16)" fill="black"/>
<path d="M19.3496 15C19.2845 14.8698 19.2292 14.7201 19.1836 14.5508C19.138 14.3815 19.099 14.2025 19.0664 14.0137C18.9167 14.1764 18.7441 14.3294 18.5488 14.4727C18.3535 14.6159 18.1354 14.7428 17.8945 14.8535C17.6602 14.9577 17.3997 15.0391 17.1133 15.0977C16.8268 15.1628 16.5176 15.1953 16.1855 15.1953C15.6452 15.1953 15.1471 15.1172 14.6914 14.9609C14.2422 14.8047 13.8548 14.5866 13.5293 14.3066C13.2038 14.0267 12.9499 13.6947 12.7676 13.3105C12.5853 12.9199 12.4941 12.4967 12.4941 12.041C12.4941 10.9277 12.9076 10.0684 13.7344 9.46289C14.5677 8.85091 15.8079 8.54492 17.4551 8.54492H18.9688V7.91992C18.9688 7.41211 18.8027 7.01172 18.4707 6.71875C18.1387 6.41927 17.6602 6.26953 17.0352 6.26953C16.4818 6.26953 16.0781 6.38997 15.8242 6.63086C15.5703 6.86523 15.4434 7.18099 15.4434 7.57812H12.7285C12.7285 7.12891 12.8262 6.70247 13.0215 6.29883C13.2233 5.89518 13.513 5.54036 13.8906 5.23438C14.2747 4.92839 14.7402 4.6875 15.2871 4.51172C15.8405 4.32943 16.472 4.23828 17.1816 4.23828C17.8197 4.23828 18.4121 4.31641 18.959 4.47266C19.5124 4.62891 19.9909 4.86003 20.3945 5.16602C20.7982 5.47201 21.1139 5.85938 21.3418 6.32812C21.5697 6.79036 21.6836 7.32747 21.6836 7.93945V12.4707C21.6836 13.0371 21.7194 13.5059 21.791 13.877C21.8626 14.248 21.9668 14.5671 22.1035 14.834V15H19.3496ZM16.7617 13.0957C17.0352 13.0957 17.2891 13.0632 17.5234 12.998C17.7578 12.9329 17.9694 12.8483 18.1582 12.7441C18.347 12.64 18.5098 12.5228 18.6465 12.3926C18.7832 12.2559 18.8906 12.1191 18.9688 11.9824V10.166H17.582C17.1589 10.166 16.7975 10.2083 16.498 10.293C16.1986 10.3711 15.9544 10.485 15.7656 10.6348C15.5768 10.778 15.4368 10.9538 15.3457 11.1621C15.2546 11.3639 15.209 11.5853 15.209 11.8262C15.209 12.1908 15.3359 12.4935 15.5898 12.7344C15.8503 12.9753 16.2409 13.0957 16.7617 13.0957Z" transform="translate(12.7031 16)" fill="black"/>
<path d="M25.3887 0H31.2969V12.793H34.3242V15H25.3887V12.793H28.5527V2.2168H25.3887V0Z" transform="translate(12.7031 16)" fill="black"/>
<path d="M46.4082 9.82422H38.2734V7.62695H46.4082V9.82422Z" transform="translate(12.7031 16)" fill="black"/>
<path d="M5.80078 39.1953C4.98698 39.1953 4.24805 39.0618 3.58398 38.7949C2.91992 38.528 2.35026 38.1667 1.875 37.7109C1.39974 37.2487 1.0319 36.7083 0.771484 36.0898C0.517578 35.4648 0.390625 34.7975 0.390625 34.0879V33.6973C0.390625 32.89 0.517578 32.1543 0.771484 31.4902C1.02539 30.8197 1.38021 30.2435 1.83594 29.7617C2.29167 29.2799 2.83203 28.9056 3.45703 28.6387C4.08203 28.3717 4.76237 28.2383 5.49805 28.2383C6.25977 28.2383 6.93685 28.3652 7.5293 28.6191C8.12825 28.8665 8.63281 29.2181 9.04297 29.6738C9.45964 30.1296 9.77539 30.6797 9.99023 31.3242C10.2051 31.9622 10.3125 32.6686 10.3125 33.4434V34.5957H3.14453C3.19661 34.9538 3.30078 35.2826 3.45703 35.582C3.61979 35.875 3.82487 36.1289 4.07227 36.3438C4.31966 36.5586 4.60286 36.7246 4.92188 36.8418C5.24089 36.959 5.58919 37.0176 5.9668 37.0176C6.23372 37.0176 6.4974 36.9915 6.75781 36.9395C7.02474 36.8874 7.27865 36.8125 7.51953 36.7148C7.76042 36.6107 7.98503 36.4837 8.19336 36.334C8.40169 36.1842 8.58398 36.0085 8.74023 35.8066L10.0977 37.2715C9.92839 37.5124 9.70703 37.75 9.43359 37.9844C9.16667 38.2122 8.84766 38.4173 8.47656 38.5996C8.11198 38.7754 7.70508 38.9186 7.25586 39.0293C6.80664 39.14 6.32161 39.1953 5.80078 39.1953ZM5.47852 30.4355C5.17253 30.4355 4.89258 30.4909 4.63867 30.6016C4.38477 30.7057 4.16016 30.8587 3.96484 31.0605C3.77604 31.2624 3.61654 31.5033 3.48633 31.7832C3.35612 32.0632 3.25846 32.3757 3.19336 32.7207H7.64648V32.5059C7.63346 32.2194 7.57812 31.9492 7.48047 31.6953C7.38281 31.4414 7.24284 31.2233 7.06055 31.041C6.87826 30.8522 6.65365 30.7057 6.38672 30.6016C6.1263 30.4909 5.82357 30.4355 5.47852 30.4355Z" transform="translate(12.7031 16)" fill="black"/>
<path d="M15.209 28.4336L15.375 29.8984C15.7526 29.3711 16.2116 28.9642 16.752 28.6777C17.2923 28.3848 17.8913 28.2383 18.5488 28.2383C19.0827 28.2383 19.571 28.3164 20.0137 28.4727C20.4564 28.6289 20.8372 28.8796 21.1562 29.2246C21.4818 29.5632 21.7324 30.0026 21.9082 30.543C22.0905 31.0768 22.1816 31.7279 22.1816 32.4961V39H19.4668V32.5352C19.4668 32.1185 19.418 31.7767 19.3203 31.5098C19.2292 31.2363 19.0957 31.0215 18.9199 30.8652C18.7441 30.709 18.5326 30.6016 18.2852 30.543C18.0378 30.4779 17.7578 30.4453 17.4453 30.4453C16.9831 30.4453 16.5892 30.5397 16.2637 30.7285C15.9382 30.9108 15.6745 31.1647 15.4727 31.4902V39H12.748V28.4336H15.209Z" transform="translate(12.7031 16)" fill="black"/>
<path d="M29.5 37.0273C29.7669 37.0273 30.0208 36.9883 30.2617 36.9102C30.5026 36.832 30.7142 36.7214 30.8965 36.5781C31.0788 36.4349 31.2188 36.2624 31.3164 36.0605C31.4206 35.8587 31.4661 35.6341 31.4531 35.3867H34.0117C34.0247 35.9336 33.9108 36.4414 33.6699 36.9102C33.4355 37.3789 33.1133 37.7826 32.7031 38.1211C32.293 38.4596 31.8145 38.7266 31.2676 38.9219C30.7272 39.1107 30.1543 39.2051 29.5488 39.2051C28.7285 39.2051 28.0091 39.0684 27.3906 38.7949C26.7721 38.515 26.2546 38.1341 25.8379 37.6523C25.4277 37.1706 25.1152 36.6074 24.9004 35.9629C24.6921 35.3118 24.5879 34.6152 24.5879 33.873V33.5801C24.5879 32.8379 24.6921 32.1445 24.9004 31.5C25.1087 30.849 25.4212 30.2826 25.8379 29.8008C26.2546 29.319 26.7689 28.9382 27.3809 28.6582C27.9993 28.3783 28.7155 28.2383 29.5293 28.2383C30.1803 28.2383 30.7826 28.3359 31.3359 28.5312C31.8893 28.7266 32.3646 29.0033 32.7617 29.3613C33.1654 29.7129 33.4779 30.1426 33.6992 30.6504C33.9206 31.1517 34.0247 31.7148 34.0117 32.3398H31.4531C31.4661 32.0794 31.4271 31.832 31.3359 31.5977C31.2448 31.3633 31.1113 31.1615 30.9355 30.9922C30.7598 30.8229 30.5482 30.6895 30.3008 30.5918C30.0534 30.4876 29.7832 30.4355 29.4902 30.4355C29.0605 30.4355 28.7057 30.5234 28.4258 30.6992C28.1458 30.875 27.9212 31.1094 27.752 31.4023C27.5892 31.6953 27.472 32.0306 27.4004 32.4082C27.3353 32.7858 27.3027 33.1764 27.3027 33.5801V33.873C27.3027 34.2832 27.3353 34.6803 27.4004 35.0645C27.4655 35.4421 27.5794 35.7773 27.7422 36.0703C27.9115 36.3568 28.1361 36.5879 28.416 36.7637C28.7025 36.9395 29.0638 37.0273 29.5 37.0273Z" transform="translate(12.7031 16)" fill="black"/>
<path d="M42.0234 39.1953C41.2096 39.1953 40.4707 39.0618 39.8066 38.7949C39.1426 38.528 38.5729 38.1667 38.0977 37.7109C37.6224 37.2487 37.2546 36.7083 36.9941 36.0898C36.7402 35.4648 36.6133 34.7975 36.6133 34.0879V33.6973C36.6133 32.89 36.7402 32.1543 36.9941 31.4902C37.248 30.8197 37.6029 30.2435 38.0586 29.7617C38.5143 29.2799 39.0547 28.9056 39.6797 28.6387C40.3047 28.3717 40.985 28.2383 41.7207 28.2383C42.4824 28.2383 43.1595 28.3652 43.752 28.6191C44.3509 28.8665 44.8555 29.2181 45.2656 29.6738C45.6823 30.1296 45.998 30.6797 46.2129 31.3242C46.4277 31.9622 46.5352 32.6686 46.5352 33.4434V34.5957H39.3672C39.4193 34.9538 39.5234 35.2826 39.6797 35.582C39.8424 35.875 40.0475 36.1289 40.2949 36.3438C40.5423 36.5586 40.8255 36.7246 41.1445 36.8418C41.4635 36.959 41.8118 37.0176 42.1895 37.0176C42.4564 37.0176 42.7201 36.9915 42.9805 36.9395C43.2474 36.8874 43.5013 36.8125 43.7422 36.7148C43.9831 36.6107 44.2077 36.4837 44.416 36.334C44.6243 36.1842 44.8066 36.0085 44.9629 35.8066L46.3203 37.2715C46.151 37.5124 45.9297 37.75 45.6562 37.9844C45.3893 38.2122 45.0703 38.4173 44.6992 38.5996C44.3346 38.7754 43.9277 38.9186 43.4785 39.0293C43.0293 39.14 42.5443 39.1953 42.0234 39.1953ZM41.7012 30.4355C41.3952 30.4355 41.1152 30.4909 40.8613 30.6016C40.6074 30.7057 40.3828 30.8587 40.1875 31.0605C39.9987 31.2624 39.8392 31.5033 39.709 31.7832C39.5788 32.0632 39.4811 32.3757 39.416 32.7207H43.8691V32.5059C43.8561 32.2194 43.8008 31.9492 43.7031 31.6953C43.6055 31.4414 43.4655 31.2233 43.2832 31.041C43.1009 30.8522 42.8763 30.7057 42.6094 30.6016C42.349 30.4909 42.0462 30.4355 41.7012 30.4355Z" transform="translate(12.7031 16)" fill="black"/>
</svg>
